<?xml version="1.0" encoding="UTF-8"?>
<svg id="Layer_1" data-name="Layer 1" xmlns="http://www.w3.org/2000/svg" xmlns:xlink="http://www.w3.org/1999/xlink" viewBox="0 0 2000.49 3995.55">
  <defs>
    <style>
      .cls-1 {
        fill: #5d9dcd;
      }

      .cls-2 {
        fill: #cecece;
      }

      .cls-3 {
        fill: none;
      }

      .cls-4 {
        fill: #a0a0a0;
      }

      .cls-5 {
        fill: #595858;
      }

      .cls-6 {
        fill: #019970;
      }

      .cls-7 {
        fill: #fff;
        stroke: #000;
        stroke-miterlimit: 10;
        stroke-width: 1.68px;
      }

      .cls-8 {
        fill: #e43c14;
      }

      .cls-9 {
        fill: #c6c6c6;
      }

      .cls-10 {
        fill: #fcc83e;
      }

      .cls-11 {
        fill: #fcfbfc;
      }

      .cls-12 {
        fill: #e0a3c5;
      }

      .cls-13 {
        clip-path: url(#clippath);
      }

      .cls-14 {
        fill: #e8e8e8;
      }
    </style>
    <clipPath id="clippath">
      <rect class="cls-3" x="301.05" y=".84" width="1366" height="3993.88"/>
    </clipPath>
  </defs>
  <g class="cls-13">
    <g>
      <g>
        <g>
          <rect class="cls-11" x="1117.39" y="751.3" width="883.09" height="793.44"/>
          <polygon class="cls-11" points=".48 .85 .48 84.94 360.9 .85 .48 .85"/>
          <polygon class="cls-4" points="1008.51 353.26 1008.51 373.5 1008.51 401.9 1314.45 401.9 1314.45 154.79 1008.51 154.79 1008.51 210.99 605.2 178.95 .48 482.51 .48 646.41 435.16 630.95 1008.51 353.26"/>
          <path class="cls-11" d="M110.9,1140.56h381.92c-18.98-166-57.66-504.98-57.66-509.61l-324.26,509.61h0Z"/>
          <polygon class="cls-11" points="2000.48 84.94 2000.48 .85 1712.05 .85 1847.08 120.74 2000.48 84.94"/>
          <path class="cls-2" d="M1557.03,909.16c-.02-.07,0-.09.02-.07L1847.08,120.74,1712.05.85h-391.89l-56.24,224.06,293.11,684.26h0Z"/>
          <path class="cls-9" d="M1557.03,909.16l.02-.07s-.04,0-.02.07Z"/>
          <polygon class="cls-9" points="1117.39 219.64 1263.86 225.82 1117.39 300.52 435.16 630.95 1019.84 800.42 1117.39 723.33 1234.31 630.95 1263.93 224.91 1117.39 41.53 1084.89 .85 640.12 .85 605.2 178.95 1117.39 219.64"/>
          <polygon class="cls-4" points="1649.1 658.91 2000.48 646.41 2000.48 482.51 1649.1 658.91"/>
          <path class="cls-14" d="M1234.31,630.95s324.77,286.38,322.72,278.21l-293.11-684.26-29.62,406.04h.01Z"/>
          <path class="cls-4" d="M1320.17.85h-44.59c-6.72,130.94-11.65,224.06-11.65,224.06L1320.17.85Z"/>
          <path class="cls-9" d="M503.08,1230.18L.48,1457.9v123.78c220.6,117.58,647.62,352.16,647.62,352.16l-145.02-703.66h0Z"/>
          <path class="cls-11" d="M.48,1581.68v419.17h360.42l287.19-67.01S221.08,1699.26.48,1581.68Z"/>
          <path class="cls-4" d="M435.16,630.95c0,4.62,38.69,343.61,57.66,509.61,6.17,53.94,10.25,89.62,10.25,89.62l222.64,314.55-128.51-404.18-162.04-509.61h0Z"/>
          <path class="cls-14" d="M1117.39,41.53l146.53,183.37s4.93-93.12,11.65-224.06h-190.69l32.51,40.68h0Z"/>
          <polygon class="cls-14" points="435.16 630.95 .48 646.41 .48 1314.1 110.9 1140.56 435.16 630.95"/>
          <polygon class="cls-14" points="605.2 178.95 640.12 .85 360.9 .85 .48 84.94 .48 482.51 605.2 178.95"/>
          <path class="cls-11" d="M492.82,1140.56H110.9L.48,1314.1v143.79l502.6-227.71s-4.09-35.69-10.25-89.62h-.01Z"/>
          <path class="cls-9" d="M2000.48,1581.68v-123.78l-128.55,58.24c2.2-1,53.4,25.48,128.55,65.54Z"/>
          <path class="cls-11" d="M2000.48,1581.68c-75.15-40.06-126.35-66.54-128.55-65.54l-480.34,200.17,320.47,284.54h288.43v-419.17h-.01Z"/>
          <polygon class="cls-2" points="1320.17 2000.85 1712.05 2000.85 1391.59 1716.31 1320.17 2000.85"/>
          <polygon class="cls-9" points="640.12 2000.85 1084.89 2000.85 727.76 1553.93 640.12 2000.85"/>
          <polygon class="cls-9" points="735.93 1544.74 1117.39 1295.83 1311.93 1168.91 1557.03 909.16 890.1 1140.56 735.93 1544.74"/>
          <path class="cls-9" d="M1311.93,1168.91l560,347.23s-44.88-177.6-94.92-375.58l-465.08,28.35Z"/>
          <path class="cls-14" d="M1847.08,120.74l-290.02,788.36c1.49,1.18,314.87,607.04,314.87,607.04l128.55-202.04v-667.69l-351.38,12.5,351.38-176.39V84.94l-153.4,35.79h0Z"/>
          <polygon class="cls-11" points="2000.48 1457.9 2000.48 1314.1 1871.93 1516.14 2000.48 1457.9"/>
          <path class="cls-14" d="M1311.93,1168.91l-194.53,126.93-381.47,248.9,154.17-404.18,129.74-340.14-584.68-169.47,162.04,509.61,128.51,404.18-222.64-314.55,145.02,703.66-287.19,67.01h279.22l87.63-446.92,357.13,446.92h190.69c15.9-309.79,41.85-831.27,36.35-831.94h.01Z"/>
          <path class="cls-4" d="M1871.93,1516.14l-560-347.23c5.5.68-20.45,522.15-36.35,831.94h44.59l71.42-284.54,480.34-200.17h0Z"/>
          <path class="cls-4" d="M1556.72,909.28c.24.08.35.05.31-.12l.02-.07s-.1.08-.33.18h0Z"/>
          <path class="cls-4" d="M1117.39,723.33l-97.55,77.08-129.74,340.14s649.91-223.89,666.63-231.28c-11.14-3.85-322.41-278.33-322.41-278.33l-116.91,92.38h-.02Z"/>
        </g>
        <g>
          <path class="cls-12" d="M1010.3,767.15c.06-1.06.1-2.12.18-3.18.03-.46.08-.91.13-1.37.04-.22.08-.44.13-.66,3.08-14.99-6.14-28.01-15.47-38.76-2.62-3.02-5.34-5.95-8.07-8.87-2.27-2.43-4.37-4.55-5.72-7.62-2.16-4.89-2.38-11.36-4.03-16.76-1.93-6.33-5.63-13.84-11.9-16.84-5.1-2.44-10.75-1.4-15.39,1.58-4.1,2.63-7.43,6.14-10.35,10-4.02,5.32-5.02,11.72-5.67,18.19-.52,5.24-.51,13.91-5.65,17.02-2.1,1.27-4.96,1.92-7.45,2.86-2.85,1.08-5.76,2.15-8.4,3.68-5.42,3.14-8.94,8.24-7.62,14.7.7,3.44,3,8.53,5.97,10.55,1.77,1.21,3.85,2.13,5.81,3,6.52,2.89,13.15,4.07,20.25,4.17,2.96.04,5.92.03,8.88.26.79.06,1.58.15,2.36.24.12.01.24.03.35.05h.03c.48.08.96.15,1.43.24,1.92.35,3.82.8,5.7,1.35,11.61,3.4,22.63,10.41,33.01,17.71,4.94,3.47,12.14,7.2,17.46,2.25,3.63-3.37,3.81-9.2,4.05-13.79h-.02Z"/>
          <path class="cls-12" d="M345.6,150.87c14.81-4.37,27.68-15.81,35.03-29.25,6.83-12.48,9.16-27.14,6.64-41.14-.51-2.81-1.24-5.56-2.22-8.25-.08-.22-.18-.42-.27-.62-.06-.21-.12-.43-.2-.63-2.23-5.72-7.1-9.08-13.1-9.76-2.59-.3-5.21,0-7.78.26-1.23.13-2.45.29-3.68.45-.62.08-1.23.15-1.85.22-1.03.12-.25.06-1.29.12-1.19.07-2.38.12-3.57.05-.51-.03-1.02-.07-1.52-.15-.08-.04-1.02-.26-1.25-.34-1.37-.43-1.04-.29-2.34-1.03-1.01-.57-1.96-1.21-2.89-1.91-1.33-1-3.32-2.92-4.98-4.64-1.82-1.89-3.57-3.84-5.37-5.76-7.33-7.81-17.21-15.56-28.59-11.46-13.01,4.69-14.24,19.33-17.63,30.69-.38,1.26-.72,2.52-1.09,3.78-.42,1.44-.48,1.58-1.31,2.93-1.23,2.01-2.47,3.27-4.47,5.05-4.02,3.56-8.64,6.36-12.71,9.86-4.2,3.61-7.59,8.12-8.45,13.7-1.14,7.43,4.63,13.12,10.72,16.24,6.04,3.09,12.26,5.16,17.89,9.07,5.68,3.94,10.8,8.61,16.26,12.82,5.36,4.13,11.21,7.83,17.74,9.79,7.22,2.16,15.07,2.04,22.28-.09h0Z"/>
          <path class="cls-6" d="M1035.63,1624.53c-5.15-15.47-22.67-17.14-35.06-24.16-4.62-2.49-7.37-7.58-10.47-11.72-10.7-13.59-36.14-15.02-47.41-1.55-4.04,6.32-1.8,14.16-1.3,21.07,1.2,9.06.1,17.85-2.13,26.36-2.65,10.11-14.89,37.4-.41,43.76,15.89,6.98,39.79-6.52,54.48-15.27,17.66-6.5,48.65-13.11,42.3-38.5h0ZM995.67,1661.85s.01,0,.02-.01c.36-.16.15-.07-.02.01Z"/>
          <path class="cls-6" d="M827.54,56.41c-4.03,10-5.27,21.83-14.91,28.26-11.55,11.44-12.22,28.01-11.99,43.08-.11,19.74,29.63,22.81,44.08,18.03,22.33-12.01,11.81-39.55,44.67-41.59,10.04-2.21,13.95-11.34,16.3-20.67,6.44-25.62-18.22-28.08-27.66-29.47-16.6-2.44-16.73-15.21-33.9-13.18-6.41.76-12.11,5.31-16.59,15.53h0Z"/>
          <path class="cls-6" d="M1391.96,1390.56c-30.53-36.91-74.15,15.47-62.83,49.86,8.32,16.54,26.4,25.93,42.98,32.39,15.3,9.89,33.03,1.99,38.89-14.59,10.27-23.57-1.8-50.78-19.04-67.66Z"/>
          <path class="cls-1" d="M385.3,1869.2c-25.16-21.72-51.21-14.05-79.2-40.91-12.67-8.08-31.78-13.35-43.48-.92-12.09,15.96,2.78,38.15,9.82,53.62,8.58,13.58,25.35,8.5,38.59,10.56,18.53,1.98,33.2,17.24,51.9,18.49,19.71,0,36.51-24.23,22.38-40.85h0Z"/>
          <path class="cls-10" d="M881.29,949.8c-34.52,5.43-49.38-26.28-77.58-35.62-12.08-4.28-13.93,10.4-13.39,19.19.25,21.76,13.19,40.53,26.45,56.77,8.33,11.15,8.43,27.42,19.92,36.63,14.96,13.02,32.67-2.4,33.31-19.23,1.09-6.32.67-13.9,5.64-18.66,4.83-4.61,12.05-4.79,18.18-6.46,27.69-10.08,13.27-39.34-12.54-32.62h.01Z"/>
          <path class="cls-1" d="M1914.8,1371.01c-17.9-13.21-38.07-1.9-49.89,15.8-11.19,16.73-15.74,42.53-2.2,52.01,13.55,9.48,35.62-16.77,48.05-30.48,12.71-9.01,14.09-25.7,4.04-37.32h0Z"/>
          <path class="cls-10" d="M618.66,499.92c-24.7-47.4-88.84,13.18-61.19,48.77,15.19,17.78,41.35,0,55.67-10.96,13.29-8.55,13.03-25.39,5.52-37.81Z"/>
          <path class="cls-12" d="M461.44,1174.64c-5.14-1.66-10.12-1.61-15.12-6.82-4.99-5.21-4.04-14.89-9.7-18.68-5.45-3.65-12.59-4.44-19.83-.61-7.67.67-12.34-13.92-22.93,2.26-10.6,16.17,16.58,32.47,27.95,45.11,5.36,7.31,8.03,17.53,17.3,21.04,10.4,4.2,22.36-.48,30.43-8.11,12.03-11.38,15.37-29.33-8.11-34.18h0Z"/>
          <path class="cls-12" d="M1197.15,1192.46c-18.19,57.72,43.65,18.4,61.53-1.27,23.38-20.73-19.53-55.49-31.37-73.5-8.91-7.46-20.96,3.13-17.35,13.22,5.29,21.48-5.73,41.89-12.8,61.55h-.01Z"/>
          <path class="cls-8" d="M622.84,984.99c-9.82-7.87-24.2-15.18-20.37-30.14,2.01-12.94-14.6-29.96-26.47-19.3-9.93,13.2-17.32,31-11.66,47.46,11.77,38.63,86.7,40.26,58.5,1.98h0Z"/>
          <path class="cls-6" d="M118.82,948.12c-34.52,5.43-49.38-26.28-77.58-35.62-12.08-4.28-13.93,10.4-13.39,19.19.25,21.76,13.19,40.53,26.45,56.77,8.33,11.15,8.43,27.42,19.92,36.63,14.96,13.02,32.67-2.4,33.31-19.23,1.09-6.32.67-13.9,5.64-18.66,4.83-4.61,12.05-4.79,18.18-6.46,27.69-10.08,13.27-39.34-12.54-32.62h.01Z"/>
          <path class="cls-12" d="M1769.34,729.77c-17.9-13.21-38.07-1.9-49.89,15.8-11.19,16.73-15.74,42.53-2.2,52.01,13.55,9.48,35.62-16.77,48.05-30.48,12.71-9.01,14.09-25.7,4.04-37.32h0Z"/>
          <path class="cls-8" d="M1253.28,732.26c-36.85-36.54-72.92,25.58-37.35,51.56,18.97,12.75,35.94-6.66,44.82-18.34,8.77-9.45,3.09-23.81-7.47-33.21h0Z"/>
          <path class="cls-6" d="M1897.28,309.26c-39.87,50.85,58.83,91.25,84.23,43.05,12-25.6-20.62-45.54-39.84-55.84-16.04-10.37-34.46-1.68-44.39,12.78h0Z"/>
          <path class="cls-6" d="M1617.39,571.15c67.81,37.18,33.94-50.12,13.75-77.43-20.15-34.47-74.42,10.64-99.94,20.99-11.57,9.31-1.3,27.04,12.24,25.05,28.24-1.27,51.07,17.62,73.95,31.39h0Z"/>
          <path class="cls-6" d="M237.38,1630.03c-12.72-5.75-31.31-9.32-26.58-27.86,2.41-15.6-19.15-29.61-34.27-13.3-12.6,18.58-21.86,41.6-14.38,58.67,15.63,40.56,111.98,17.1,75.23-17.51Z"/>
          <path class="cls-8" d="M1623.46,1389.08c-11.53-5.93-24.68-4.14-36.85-7.7-5.27-1.93-10.52-5.85-16.4-3.73-26,18.24,12.52,40.95,22.89,56.55,9.26,16.75,17.85,37.76,39.95,22.1,21.9-16.85,13.94-55.54-9.58-67.22h-.01Z"/>
          <path class="cls-1" d="M1149.46,930.33c-6.46-8.58-15.27-7.82-24.99-11.05-14.55-4.83-28.31-4.81-38.11,3.36-21.64,18.04-54.64,15.86-41.11,46.36,4.56,10.28,21.65,13.39,27.72,25.79s10.88,20.39,18.59,21c10.17.8,9.91-16.63,22.78-28.81s25.81-12.07,33.04-22.82c6.55-9.74,8.53-25.25,2.07-33.83h.01Z"/>
          <path class="cls-1" d="M230.61,719.36c-34.75-26.96-79.41,45.04-52.09,67.8,13.55,9.47,35.62-16.77,48.05-30.48,12.71-9.01,14.09-25.7,4.04-37.32Z"/>
          <path class="cls-8" d="M373.69,1424.82c1.31-43.97-83.17-37.63-85.48-2.15.33,16.53,34.53,18.91,52.94,20.87,14.77,4.97,29.07-3.76,32.54-18.72Z"/>
          <path class="cls-1" d="M752.51,1216.65c-18.92-19.49-4.69-24.47-5.87-43.88-2.74-7.69-9.29-13.78-19.35-15.31-8.16-5.02-2-23.05-24.58-14.75s-7.52,44.73-5.53,65.79c-20.64,71.56,95.47,55.86,55.34,8.16h-.01Z"/>
          <path class="cls-10" d="M339.63,988.77c50.19-20.51-12.32-40.62-36.1-41.68-27.67-4.25-27.06,45.23-32.69,63.7-.04,10.41,14.16,12.65,19.05,4.39,11.78-15.94,32.15-20.04,49.75-26.42h0Z"/>
          <path class="cls-8" d="M873.85,1851.76c-11.82-22.8-41.29-37-65.26-24.53-3.59,2.56-8.53,4.04-11.54,1.13-5.24-13.62-25.94-6.57-28.94,5.22-4.38,16.34,1.58,38.45,16.71,47.24,23.86,9.47,34.59-.34,54.82,22.36,33.98,22.63,52.16-25.17,34.21-51.42h0Z"/>
          <path class="cls-1" d="M757.26,305.99c-8.93-5.09-18.99-7.14-28.54-10.69-11.53-21.48-29.65-17.2-39.26,3.11-15.51,16.4-17.53,40.45,5.34,51.07,14.84,8.2,29.27-7.53,43.35-10.74,9.04-2.5,18.48,4.78,27.47.48,17.07-8.38,3.64-27.22-8.36-33.23Z"/>
          <path class="cls-10" d="M1932.57,981.02c-10.27-7.44-22.64.71-29.24-9.38-5.2-7.94-4.7-27.11-17.71-33.1-17.81-8.2-32.84,8.73-39.14,9.4-9.32.99-45.13-10.6-45.1,18.98.01,13.92,12.19,30.35,25.48,36.48,20.75,9.58,17.22,19.55,28.69,25.4,19.05,5.55,35.46-12,55.71-6.36s22.64-1.69,27.89-9.56c6.14-9.2,3.68-24.42-6.58-31.86ZM1903.15,971.53c-.32-.22-.3-.26,0,0h0Z"/>
          <path class="cls-8" d="M1149.95,517.1c-7.23-3.12-12.01-8.37-15.96-15.05-5.93-9.4-12.36-12.55-18.83-12.03-10.46.84-17.44,16.52-21.19,19.17-3.75,2.65-17,6.63-18.91,10.63-4.47,9.36-2.15,22.61-3.39,32.82-.86,12.69-11.91,18.37-5.83,31.34,9.46,12.45,44.3-13.24,54.15-20.41,9.44-6.76,22.71-6.01,32.21-13.03,13.14-8.05,11.46-26.99-2.26-33.44h0Z"/>
          <path class="cls-12" d="M1409.07,93.83c7.12-14.37,4.65-30.59,8.81-45.7,2.29-6.55,7.03-13.12,4.29-20.35-23.04-31.79-50.38,16.25-69.46,29.37-20.53,11.76-46.33,22.78-26.55,49.8,21.24,26.74,68.92,16.17,82.91-13.12h0Z"/>
          <path class="cls-12" d="M1926.65,1831.53c-6.46-8.58-15.27-7.82-24.99-11.05-14.55-4.83-28.31-4.81-38.11,3.36-21.64,18.04-54.64,15.86-41.11,46.36,4.56,10.28,21.65,13.39,27.72,25.79s10.88,20.39,18.59,21c10.17.8,9.91-16.63,22.78-28.81s25.81-12.07,33.04-22.82c6.55-9.74,8.53-25.25,2.07-33.83h.01Z"/>
          <path class="cls-10" d="M1692.38,93.23c-.55-1.04-1.1-2.07-1.63-3.13-.23-.45-.44-.91-.66-1.37-.09-.23-.17-.47-.25-.7-5.57-16.02-21.73-23.17-36.71-28.11-4.21-1.39-8.46-2.63-12.71-3.86-3.54-1.02-6.74-1.85-9.77-4-4.83-3.43-8.71-9.46-13.34-13.66-5.43-4.93-13.2-9.98-20.88-9.28-6.24.57-11.02,4.76-13.75,10.23-2.41,4.83-3.59,10.05-4.18,15.38-.81,7.34,1.87,14,4.92,20.53,2.48,5.29,7.4,13.53,4.27,19.4-1.28,2.4-3.63,4.64-5.47,6.95-2.1,2.64-4.26,5.31-5.9,8.27-3.38,6.07-3.83,12.91,1.08,18.31,2.62,2.88,7.69,6.42,11.66,6.65,2.37.14,4.88-.16,7.23-.44,7.85-.95,14.82-3.58,21.64-7.52,2.84-1.64,5.65-3.33,8.59-4.79.79-.39,1.58-.75,2.38-1.12.12-.05.24-.11.36-.16t.03-.01c.5-.2,1-.4,1.5-.59,2.03-.76,4.1-1.4,6.19-1.94,12.98-3.35,27.44-2.93,41.45-1.87,6.67.5,15.64-.04,17.89-7.76,1.54-5.27-1.6-10.91-3.96-15.42h.02Z"/>
          <path class="cls-10" d="M480.25,1612.78c-30.53-36.91-74.15,15.47-62.83,49.86,8.32,16.54,26.4,25.93,42.98,32.39,15.3,9.89,33.03,1.99,38.89-14.59,10.27-23.57-1.8-50.78-19.04-67.66Z"/>
          <path class="cls-10" d="M1388.24,548.86c-8.12-21.7-26.61-25.71-34.74-51.5-5.05-9.18-14.97-18.79-26.28-15.1-12.73,5.71-11.06,24.26-11.93,36.06.7,11.17,12.66,13.68,20.06,19.36,10.67,7.41,14.53,21.64,25.55,28.66,12.05,6.6,30.42-2.6,27.34-17.49h0Z"/>
          <path class="cls-1" d="M1117.62,1898.17c15.72-3.15,27.05-15.01,41.55-20.96,6.59-2.2,14.68-2.46,18.73-9.04,11.08-37.67-43.65-29.94-65.7-37.03-21.86-9.06-46.35-22.75-55.64,9.42-8.18,33.16,29.32,64.43,61.06,57.6h0Z"/>
          <path class="cls-10" d="M1120.34,389.54c-3.53-4.68-8.34-4.27-13.64-6.03-7.94-2.64-15.45-2.63-20.8,1.84-11.81,9.85-29.82,8.65-22.44,25.31,2.49,5.61,11.82,7.31,15.13,14.08,3.32,6.77,5.94,11.13,10.15,11.46,5.55.44,5.41-9.08,12.44-15.72,7.03-6.65,14.09-6.59,18.04-12.46,3.58-5.31,4.66-13.78,1.13-18.47h-.01Z"/>
          <path class="cls-8" d="M373.73,503.79c-12.67-1.36-19.68,11.79-30.39,6.34-8.44-4.3-17.25-21.12-31.65-19.87-19.71,1.71-24.83,23.77-30.08,27.46-7.77,5.46-45.04,13.13-30.73,38.69,6.73,12.02,25.43,20.22,40.15,18.96,22.98-1.97,24.68,8.4,37.64,7.79,19.53-4.61,25.57-27.9,46.2-33.03,20.63-5.13,19.21-12.65,20.05-22.04.99-10.99-8.54-22.94-21.21-24.29h.02ZM343.13,510.11c-.39-.03-.39-.08,0,0h0Z"/>
        </g>
        <g>
          <path class="cls-5" d="M56.85,73.3c5.05-4.78,13.23-4.78,18.27,0,5.05,4.78,5.05,12.54,0,17.32s-13.23,4.78-18.27,0-5.05-12.54,0-17.32Z"/>
          <path class="cls-5" d="M315.28,73.3c5.05-4.78,13.23-4.78,18.27,0,5.05,4.78,5.05,12.54,0,17.32s-13.23,4.78-18.27,0-5.05-12.54,0-17.32Z"/>
          <path class="cls-5" d="M573.7,73.3c5.05-4.78,13.23-4.78,18.27,0,5.05,4.78,5.05,12.54,0,17.32s-13.23,4.78-18.27,0-5.05-12.54,0-17.32Z"/>
          <path class="cls-5" d="M832.13,73.3c5.05-4.78,13.23-4.78,18.27,0,5.05,4.78,5.05,12.54,0,17.32s-13.23,4.78-18.27,0c-5.05-4.78-5.05-12.54,0-17.32Z"/>
          <path class="cls-5" d="M1090.56,73.3c5.05-4.78,13.23-4.78,18.27,0,5.05,4.78,5.05,12.54,0,17.32s-13.23,4.78-18.27,0-5.05-12.54,0-17.32Z"/>
          <path class="cls-5" d="M1348.98,73.3c5.05-4.78,13.23-4.78,18.27,0,5.05,4.78,5.05,12.54,0,17.32s-13.23,4.78-18.27,0c-5.05-4.78-5.05-12.54,0-17.32Z"/>
          <path class="cls-5" d="M1607.41,73.3c5.05-4.78,13.23-4.78,18.27,0,5.05,4.78,5.05,12.54,0,17.32s-13.23,4.78-18.27,0c-5.05-4.78-5.05-12.54,0-17.32Z"/>
          <path class="cls-5" d="M1865.84,73.3c5.05-4.78,13.23-4.78,18.27,0,5.05,4.78,5.05,12.54,0,17.32s-13.23,4.78-18.27,0c-5.05-4.78-5.05-12.54,0-17.32Z"/>
          <path class="cls-5" d="M186.85,295.52c5.05-4.78,13.23-4.78,18.27,0s5.05,12.54,0,17.32-13.23,4.78-18.27,0c-5.05-4.78-5.05-12.54,0-17.32Z"/>
          <path class="cls-5" d="M445.28,295.52c5.05-4.78,13.23-4.78,18.27,0s5.05,12.54,0,17.32-13.23,4.78-18.27,0-5.05-12.54,0-17.32Z"/>
          <path class="cls-5" d="M703.7,295.52c5.05-4.78,13.23-4.78,18.27,0s5.05,12.54,0,17.32-13.23,4.78-18.27,0-5.05-12.54,0-17.32Z"/>
          <path class="cls-5" d="M962.13,295.52c5.05-4.78,13.23-4.78,18.27,0s5.05,12.54,0,17.32-13.23,4.78-18.27,0c-5.05-4.78-5.05-12.54,0-17.32Z"/>
          <path class="cls-5" d="M1220.56,295.52c5.05-4.78,13.23-4.78,18.27,0,5.05,4.78,5.05,12.54,0,17.32s-13.23,4.78-18.27,0-5.05-12.54,0-17.32Z"/>
          <path class="cls-5" d="M1478.98,295.52c5.05-4.78,13.23-4.78,18.27,0,5.05,4.78,5.05,12.54,0,17.32s-13.23,4.78-18.27,0c-5.05-4.78-5.05-12.54,0-17.32Z"/>
          <path class="cls-5" d="M1737.41,295.52c5.05-4.78,13.23-4.78,18.27,0s5.05,12.54,0,17.32-13.23,4.78-18.27,0c-5.05-4.78-5.05-12.54,0-17.32Z"/>
          <path class="cls-5" d="M186.85,739.97c5.05-4.78,13.23-4.78,18.27,0,5.05,4.78,5.05,12.54,0,17.32s-13.23,4.78-18.27,0c-5.05-4.78-5.05-12.54,0-17.32Z"/>
          <path class="cls-5" d="M703.7,739.97c5.05-4.78,13.23-4.78,18.27,0,5.05,4.78,5.05,12.54,0,17.32s-13.23,4.78-18.27,0c-5.05-4.78-5.05-12.54,0-17.32Z"/>
          <path class="cls-5" d="M962.13,739.97c5.05-4.78,13.23-4.78,18.27,0,5.05,4.78,5.05,12.54,0,17.32s-13.23,4.78-18.27,0c-5.05-4.78-5.05-12.54,0-17.32Z"/>
          <path class="cls-5" d="M1220.56,739.97c5.05-4.78,13.23-4.78,18.27,0,5.05,4.78,5.05,12.54,0,17.32s-13.23,4.78-18.27,0c-5.05-4.78-5.05-12.54,0-17.32Z"/>
          <path class="cls-5" d="M1478.98,739.97c5.05-4.78,13.23-4.78,18.27,0,5.05,4.78,5.05,12.54,0,17.32s-13.23,4.78-18.27,0c-5.05-4.78-5.05-12.54,0-17.32Z"/>
          <path class="cls-5" d="M1737.41,739.97c5.05-4.78,13.23-4.78,18.27,0,5.05,4.78,5.05,12.54,0,17.32s-13.23,4.78-18.27,0c-5.05-4.78-5.05-12.54,0-17.32Z"/>
          <path class="cls-5" d="M56.85,517.74c5.05-4.78,13.23-4.78,18.27,0s5.05,12.54,0,17.32-13.23,4.78-18.27,0-5.05-12.54,0-17.32Z"/>
          <path class="cls-5" d="M315.28,517.74c5.05-4.78,13.23-4.78,18.27,0s5.05,12.54,0,17.32-13.23,4.78-18.27,0-5.05-12.54,0-17.32Z"/>
          <path class="cls-5" d="M573.7,517.74c5.05-4.78,13.23-4.78,18.27,0s5.05,12.54,0,17.32-13.23,4.78-18.27,0-5.05-12.54,0-17.32Z"/>
          <path class="cls-5" d="M832.13,517.74c5.05-4.78,13.23-4.78,18.27,0s5.05,12.54,0,17.32-13.23,4.78-18.27,0c-5.05-4.78-5.05-12.54,0-17.32Z"/>
          <path class="cls-5" d="M1090.56,517.74c5.05-4.78,13.23-4.78,18.27,0,5.05,4.78,5.05,12.54,0,17.32s-13.23,4.78-18.27,0-5.05-12.54,0-17.32Z"/>
          <path class="cls-5" d="M1348.98,517.74c5.05-4.78,13.23-4.78,18.27,0,5.05,4.78,5.05,12.54,0,17.32s-13.23,4.78-18.27,0c-5.05-4.78-5.05-12.54,0-17.32Z"/>
          <path class="cls-5" d="M1607.41,517.74c5.05-4.78,13.23-4.78,18.27,0s5.05,12.54,0,17.32-13.23,4.78-18.27,0c-5.05-4.78-5.05-12.54,0-17.32Z"/>
          <path class="cls-5" d="M1865.84,517.74c5.05-4.78,13.23-4.78,18.27,0,5.05,4.78,5.05,12.54,0,17.32s-13.23,4.78-18.27,0c-5.05-4.78-5.05-12.54,0-17.32Z"/>
          <path class="cls-5" d="M186.85,1184.41c5.05-4.78,13.23-4.78,18.27,0,5.05,4.78,5.05,12.54,0,17.32-5.05,4.78-13.23,4.78-18.27,0-5.05-4.78-5.05-12.54,0-17.32Z"/>
          <path class="cls-5" d="M445.28,1184.41c5.05-4.78,13.23-4.78,18.27,0,5.05,4.78,5.05,12.54,0,17.32-5.05,4.78-13.23,4.78-18.27,0-5.05-4.78-5.05-12.54,0-17.32Z"/>
          <path class="cls-5" d="M703.7,1184.41c5.05-4.78,13.23-4.78,18.27,0,5.05,4.78,5.05,12.54,0,17.32-5.05,4.78-13.23,4.78-18.27,0-5.05-4.78-5.05-12.54,0-17.32Z"/>
          <path class="cls-5" d="M962.13,1184.41c5.05-4.78,13.23-4.78,18.27,0,5.05,4.78,5.05,12.54,0,17.32-5.05,4.78-13.23,4.78-18.27,0-5.05-4.78-5.05-12.54,0-17.32Z"/>
          <path class="cls-5" d="M1220.56,1184.41c5.05-4.78,13.23-4.78,18.27,0,5.05,4.78,5.05,12.54,0,17.32-5.05,4.78-13.23,4.78-18.27,0-5.05-4.78-5.05-12.54,0-17.32Z"/>
          <path class="cls-5" d="M1478.98,1184.41c5.05-4.78,13.23-4.78,18.27,0,5.05,4.78,5.05,12.54,0,17.32-5.05,4.78-13.23,4.78-18.27,0-5.05-4.78-5.05-12.54,0-17.32Z"/>
          <path class="cls-5" d="M1737.41,1184.41c5.05-4.78,13.23-4.78,18.27,0,5.05,4.78,5.05,12.54,0,17.32-5.05,4.78-13.23,4.78-18.27,0-5.05-4.78-5.05-12.54,0-17.32Z"/>
          <path class="cls-5" d="M56.85,962.19c5.05-4.78,13.23-4.78,18.27,0,5.05,4.78,5.05,12.54,0,17.32s-13.23,4.78-18.27,0c-5.05-4.78-5.05-12.54,0-17.32Z"/>
          <path class="cls-5" d="M315.28,962.19c5.05-4.78,13.23-4.78,18.27,0,5.05,4.78,5.05,12.54,0,17.32s-13.23,4.78-18.27,0c-5.05-4.78-5.05-12.54,0-17.32Z"/>
          <path class="cls-5" d="M573.7,962.19c5.05-4.78,13.23-4.78,18.27,0,5.05,4.78,5.05,12.54,0,17.32s-13.23,4.78-18.27,0c-5.05-4.78-5.05-12.54,0-17.32Z"/>
          <path class="cls-5" d="M832.13,962.19c5.05-4.78,13.23-4.78,18.27,0,5.05,4.78,5.05,12.54,0,17.32s-13.23,4.78-18.27,0c-5.05-4.78-5.05-12.54,0-17.32Z"/>
          <path class="cls-5" d="M1090.56,962.19c5.05-4.78,13.23-4.78,18.27,0,5.05,4.78,5.05,12.54,0,17.32s-13.23,4.78-18.27,0c-5.05-4.78-5.05-12.54,0-17.32Z"/>
          <path class="cls-5" d="M1348.98,962.19c5.05-4.78,13.23-4.78,18.27,0,5.05,4.78,5.05,12.54,0,17.32s-13.23,4.78-18.27,0c-5.05-4.78-5.05-12.54,0-17.32Z"/>
          <path class="cls-5" d="M1607.41,962.19c5.05-4.78,13.23-4.78,18.27,0,5.05,4.78,5.05,12.54,0,17.32s-13.23,4.78-18.27,0c-5.05-4.78-5.05-12.54,0-17.32Z"/>
          <path class="cls-5" d="M1865.84,962.19c5.05-4.78,13.23-4.78,18.27,0,5.05,4.78,5.05,12.54,0,17.32s-13.23,4.78-18.27,0c-5.05-4.78-5.05-12.54,0-17.32Z"/>
          <path class="cls-5" d="M56.85,1406.63c5.05-4.78,13.23-4.78,18.27,0,5.05,4.78,5.05,12.54,0,17.32-5.05,4.78-13.23,4.78-18.27,0-5.05-4.78-5.05-12.54,0-17.32Z"/>
          <path class="cls-5" d="M315.28,1406.63c5.05-4.78,13.23-4.78,18.27,0,5.05,4.78,5.05,12.54,0,17.32-5.05,4.78-13.23,4.78-18.27,0-5.05-4.78-5.05-12.54,0-17.32Z"/>
          <path class="cls-5" d="M573.7,1406.63c5.05-4.78,13.23-4.78,18.27,0,5.05,4.78,5.05,12.54,0,17.32-5.05,4.78-13.23,4.78-18.27,0-5.05-4.78-5.05-12.54,0-17.32Z"/>
          <path class="cls-5" d="M832.13,1406.63c5.05-4.78,13.23-4.78,18.27,0,5.05,4.78,5.05,12.54,0,17.32-5.05,4.78-13.23,4.78-18.27,0-5.05-4.78-5.05-12.54,0-17.32Z"/>
          <path class="cls-5" d="M1090.56,1406.63c5.05-4.78,13.23-4.78,18.27,0,5.05,4.78,5.05,12.54,0,17.32-5.05,4.78-13.23,4.78-18.27,0-5.05-4.78-5.05-12.54,0-17.32Z"/>
          <path class="cls-5" d="M1348.98,1406.63c5.05-4.78,13.23-4.78,18.27,0,5.05,4.78,5.05,12.54,0,17.32-5.05,4.78-13.23,4.78-18.27,0-5.05-4.78-5.05-12.54,0-17.32Z"/>
          <path class="cls-5" d="M1607.41,1406.63c5.05-4.78,13.23-4.78,18.27,0,5.05,4.78,5.05,12.54,0,17.32-5.05,4.78-13.23,4.78-18.27,0-5.05-4.78-5.05-12.54,0-17.32Z"/>
          <path class="cls-5" d="M1865.84,1406.63c5.05-4.78,13.23-4.78,18.27,0,5.05,4.78,5.05,12.54,0,17.32-5.05,4.78-13.23,4.78-18.27,0-5.05-4.78-5.05-12.54,0-17.32Z"/>
          <path class="cls-5" d="M186.85,1628.85c5.05-4.78,13.23-4.78,18.27,0,5.05,4.78,5.05,12.54,0,17.32-5.05,4.78-13.23,4.78-18.27,0-5.05-4.78-5.05-12.54,0-17.32Z"/>
          <path class="cls-5" d="M445.28,1628.85c5.05-4.78,13.23-4.78,18.27,0,5.05,4.78,5.05,12.54,0,17.32-5.05,4.78-13.23,4.78-18.27,0-5.05-4.78-5.05-12.54,0-17.32Z"/>
          <path class="cls-5" d="M962.13,1628.85c5.05-4.78,13.23-4.78,18.27,0,5.05,4.78,5.05,12.54,0,17.32-5.05,4.78-13.23,4.78-18.27,0-5.05-4.78-5.05-12.54,0-17.32Z"/>
          <path class="cls-5" d="M1220.56,1628.85c5.05-4.78,13.23-4.78,18.27,0,5.05,4.78,5.05,12.54,0,17.32-5.05,4.78-13.23,4.78-18.27,0-5.05-4.78-5.05-12.54,0-17.32Z"/>
          <path class="cls-5" d="M1478.98,1628.85c5.05-4.78,13.23-4.78,18.27,0,5.05,4.78,5.05,12.54,0,17.32-5.05,4.78-13.23,4.78-18.27,0-5.05-4.78-5.05-12.54,0-17.32Z"/>
          <path class="cls-5" d="M1737.41,1628.85c5.05-4.78,13.23-4.78,18.27,0,5.05,4.78,5.05,12.54,0,17.32-5.05,4.78-13.23,4.78-18.27,0-5.05-4.78-5.05-12.54,0-17.32Z"/>
          <path class="cls-5" d="M56.85,1851.08c5.05-4.78,13.23-4.78,18.27,0s5.05,12.54,0,17.32c-5.05,4.78-13.23,4.78-18.27,0-5.05-4.78-5.05-12.54,0-17.32Z"/>
          <path class="cls-5" d="M315.28,1851.08c5.05-4.78,13.23-4.78,18.27,0s5.05,12.54,0,17.32c-5.05,4.78-13.23,4.78-18.27,0-5.05-4.78-5.05-12.54,0-17.32Z"/>
          <path class="cls-5" d="M573.7,1851.08c5.05-4.78,13.23-4.78,18.27,0s5.05,12.54,0,17.32c-5.05,4.78-13.23,4.78-18.27,0-5.05-4.78-5.05-12.54,0-17.32Z"/>
          <path class="cls-5" d="M832.13,1851.08c5.05-4.78,13.23-4.78,18.27,0s5.05,12.54,0,17.32c-5.05,4.78-13.23,4.78-18.27,0-5.05-4.78-5.05-12.54,0-17.32Z"/>
          <path class="cls-5" d="M1090.56,1851.08c5.05-4.78,13.23-4.78,18.27,0,5.05,4.78,5.05,12.54,0,17.32-5.05,4.78-13.23,4.78-18.27,0-5.05-4.78-5.05-12.54,0-17.32Z"/>
          <path class="cls-5" d="M1348.98,1851.08c5.05-4.78,13.23-4.78,18.27,0,5.05,4.78,5.05,12.54,0,17.32-5.05,4.78-13.23,4.78-18.27,0-5.05-4.78-5.05-12.54,0-17.32Z"/>
          <path class="cls-5" d="M1607.41,1851.08c5.05-4.78,13.23-4.78,18.27,0s5.05,12.54,0,17.32c-5.05,4.78-13.23,4.78-18.27,0-5.05-4.78-5.05-12.54,0-17.32Z"/>
          <path class="cls-5" d="M1865.84,1851.08c5.05-4.78,13.23-4.78,18.27,0,5.05,4.78,5.05,12.54,0,17.32-5.05,4.78-13.23,4.78-18.27,0-5.05-4.78-5.05-12.54,0-17.32Z"/>
        </g>
      </g>
      <g>
        <g>
          <rect class="cls-11" x="1116.91" y="2745.16" width="883.09" height="793.44"/>
          <polygon class="cls-11" points="0 1994.71 0 2078.8 360.42 1994.71 0 1994.71"/>
          <polygon class="cls-4" points="1008.03 2347.12 1008.03 2367.36 1008.03 2395.76 1313.97 2395.76 1313.97 2148.65 1008.03 2148.65 1008.03 2204.85 604.72 2172.81 0 2476.37 0 2640.27 434.68 2624.81 1008.03 2347.12"/>
          <path class="cls-11" d="M110.42,3134.42h381.92c-18.98-166-57.66-504.98-57.66-509.61l-324.26,509.61h0Z"/>
          <polygon class="cls-11" points="2000 2078.8 2000 1994.71 1711.57 1994.71 1846.6 2114.6 2000 2078.8"/>
          <path class="cls-2" d="M1556.55,2903.02c-.02-.07,0-.09.02-.07l290.03-788.35-135.03-119.89h-391.89l-56.24,224.06,293.11,684.26h0Z"/>
          <path class="cls-9" d="M1556.55,2903.02l.02-.07s-.04,0-.02.07Z"/>
          <polygon class="cls-9" points="1116.91 2213.5 1263.38 2219.68 1116.91 2294.38 434.68 2624.81 1019.36 2794.28 1116.91 2717.19 1233.83 2624.81 1263.45 2218.77 1116.91 2035.39 1084.41 1994.71 639.64 1994.71 604.72 2172.81 1116.91 2213.5"/>
          <polygon class="cls-4" points="1648.62 2652.77 2000 2640.27 2000 2476.37 1648.62 2652.77"/>
          <path class="cls-14" d="M1233.83,2624.81s324.77,286.38,322.72,278.21l-293.11-684.26-29.62,406.04h.01Z"/>
          <path class="cls-4" d="M1319.69,1994.71h-44.59c-6.72,130.94-11.65,224.06-11.65,224.06l56.24-224.06Z"/>
          <path class="cls-9" d="M502.6,3224.04L0,3451.76v123.78c220.6,117.58,647.62,352.16,647.62,352.16l-145.02-703.66h0Z"/>
          <path class="cls-11" d="M0,3575.54v419.17h360.42l287.19-67.01S220.6,3693.12,0,3575.54Z"/>
          <path class="cls-4" d="M434.68,2624.81c0,4.62,38.69,343.61,57.66,509.61,6.17,53.94,10.25,89.62,10.25,89.62l222.64,314.55-128.51-404.18-162.04-509.61h0Z"/>
          <path class="cls-14" d="M1116.91,2035.39l146.53,183.37s4.93-93.12,11.65-224.06h-190.69l32.51,40.68h0Z"/>
          <polygon class="cls-14" points="434.68 2624.81 0 2640.27 0 3307.96 110.42 3134.42 434.68 2624.81"/>
          <polygon class="cls-14" points="604.72 2172.81 639.64 1994.71 360.42 1994.71 0 2078.8 0 2476.37 604.72 2172.81"/>
          <path class="cls-11" d="M492.34,3134.42H110.42L0,3307.96v143.79l502.6-227.71s-4.09-35.69-10.25-89.62h-.01Z"/>
          <path class="cls-9" d="M2000,3575.54v-123.78l-128.55,58.24c2.2-1,53.4,25.48,128.55,65.54Z"/>
          <path class="cls-11" d="M2000,3575.54c-75.15-40.06-126.35-66.54-128.55-65.54l-480.34,200.17,320.47,284.54h288.43v-419.17h-.01Z"/>
          <polygon class="cls-2" points="1319.69 3994.71 1711.57 3994.71 1391.11 3710.17 1319.69 3994.71"/>
          <polygon class="cls-9" points="639.64 3994.71 1084.41 3994.71 727.28 3547.79 639.64 3994.71"/>
          <polygon class="cls-9" points="735.45 3538.6 1116.91 3289.69 1311.45 3162.77 1556.55 2903.02 889.62 3134.42 735.45 3538.6"/>
          <path class="cls-9" d="M1311.45,3162.77l560,347.23s-44.88-177.6-94.92-375.58l-465.08,28.35Z"/>
          <path class="cls-14" d="M1846.6,2114.6l-290.02,788.36c1.49,1.18,314.87,607.04,314.87,607.04l128.55-202.04v-667.69l-351.38,12.5,351.38-176.39v-397.58l-153.4,35.79h0Z"/>
          <polygon class="cls-11" points="2000 3451.76 2000 3307.96 1871.45 3510 2000 3451.76"/>
          <path class="cls-14" d="M1311.45,3162.77l-194.53,126.93-381.47,248.9,154.17-404.18,129.74-340.14-584.68-169.47,162.04,509.61,128.51,404.18-222.64-314.55,145.02,703.66-287.19,67.01h279.22l87.63-446.92,357.13,446.92h190.69c15.9-309.79,41.85-831.27,36.35-831.94h.01Z"/>
          <path class="cls-4" d="M1871.45,3510l-560-347.23c5.5.68-20.45,522.15-36.35,831.94h44.59l71.42-284.54,480.34-200.17h0Z"/>
          <path class="cls-4" d="M1556.24,2903.14c.24.08.35.05.31-.12l.02-.07s-.1.08-.33.18h0Z"/>
          <path class="cls-4" d="M1116.91,2717.19l-97.55,77.08-129.74,340.14s649.91-223.89,666.63-231.28c-11.14-3.85-322.41-278.33-322.41-278.33l-116.91,92.38h-.02Z"/>
        </g>
        <g>
          <path class="cls-12" d="M1009.82,2761.01c.06-1.06.1-2.12.18-3.18.03-.46.08-.91.13-1.37.04-.22.08-.44.13-.66,3.08-14.99-6.14-28.01-15.47-38.76-2.62-3.02-5.34-5.95-8.07-8.87-2.27-2.43-4.37-4.55-5.72-7.62-2.16-4.89-2.38-11.36-4.03-16.76-1.93-6.33-5.63-13.84-11.9-16.84-5.1-2.44-10.75-1.4-15.39,1.58-4.1,2.63-7.43,6.14-10.35,10-4.02,5.32-5.02,11.72-5.67,18.19-.52,5.24-.51,13.91-5.65,17.02-2.1,1.27-4.96,1.92-7.45,2.86-2.85,1.08-5.76,2.15-8.4,3.68-5.42,3.14-8.94,8.24-7.62,14.7.7,3.44,3,8.53,5.97,10.55,1.77,1.21,3.85,2.13,5.81,3,6.52,2.89,13.15,4.07,20.25,4.17,2.96.04,5.92.03,8.88.26.79.06,1.58.15,2.36.24.12.01.24.03.35.05h.03c.48.08.96.15,1.43.24,1.92.35,3.82.8,5.7,1.35,11.61,3.4,22.63,10.41,33.01,17.71,4.94,3.47,12.14,7.2,17.46,2.25,3.63-3.37,3.81-9.2,4.05-13.79h-.02Z"/>
          <path class="cls-12" d="M345.12,2144.73c14.81-4.37,27.68-15.81,35.03-29.25,6.83-12.48,9.16-27.14,6.64-41.14-.51-2.81-1.24-5.56-2.22-8.25-.08-.22-.18-.42-.27-.62-.06-.21-.12-.43-.2-.63-2.23-5.72-7.1-9.08-13.1-9.76-2.59-.3-5.21,0-7.78.26-1.23.13-2.45.29-3.68.45-.62.08-1.23.15-1.85.22-1.03.12-.25.06-1.29.12-1.19.07-2.38.12-3.57.05-.51-.03-1.02-.07-1.52-.15-.08-.04-1.02-.26-1.25-.34-1.37-.43-1.04-.29-2.34-1.03-1.01-.57-1.96-1.21-2.89-1.91-1.33-1-3.32-2.92-4.98-4.64-1.82-1.89-3.57-3.84-5.37-5.76-7.33-7.81-17.21-15.56-28.59-11.46-13.01,4.69-14.24,19.33-17.63,30.69-.38,1.26-.72,2.52-1.09,3.78-.42,1.44-.48,1.58-1.31,2.93-1.23,2.01-2.47,3.27-4.47,5.05-4.02,3.56-8.64,6.36-12.71,9.86-4.2,3.61-7.59,8.12-8.45,13.7-1.14,7.43,4.63,13.12,10.72,16.24,6.04,3.09,12.26,5.16,17.89,9.07,5.68,3.94,10.8,8.61,16.26,12.82,5.36,4.13,11.21,7.83,17.74,9.79,7.22,2.16,15.07,2.04,22.28-.09h0Z"/>
          <path class="cls-6" d="M1035.15,3618.39c-5.15-15.47-22.67-17.14-35.06-24.16-4.62-2.49-7.37-7.58-10.47-11.72-10.7-13.59-36.14-15.02-47.41-1.55-4.04,6.32-1.8,14.16-1.3,21.07,1.2,9.06.1,17.85-2.13,26.36-2.65,10.11-14.89,37.4-.41,43.76,15.89,6.98,39.79-6.52,54.48-15.27,17.66-6.5,48.65-13.11,42.3-38.5h0ZM995.19,3655.71s.01,0,.02-.01c.36-.16.15-.07-.02.01Z"/>
          <path class="cls-6" d="M827.06,2050.27c-4.03,10-5.27,21.83-14.91,28.26-11.55,11.44-12.22,28.01-11.99,43.08-.11,19.74,29.63,22.81,44.08,18.03,22.33-12.01,11.81-39.55,44.67-41.59,10.04-2.21,13.95-11.34,16.3-20.67,6.44-25.62-18.22-28.08-27.66-29.47-16.6-2.44-16.73-15.21-33.9-13.18-6.41.76-12.11,5.31-16.59,15.53h0Z"/>
          <path class="cls-6" d="M1391.48,3384.42c-30.53-36.91-74.15,15.47-62.83,49.86,8.32,16.54,26.4,25.93,42.98,32.39,15.3,9.89,33.03,1.99,38.89-14.59,10.27-23.57-1.8-50.78-19.04-67.66Z"/>
          <path class="cls-1" d="M384.82,3863.06c-25.16-21.72-51.21-14.05-79.2-40.91-12.67-8.08-31.78-13.35-43.48-.92-12.09,15.96,2.78,38.15,9.82,53.62,8.58,13.58,25.35,8.5,38.59,10.56,18.53,1.98,33.2,17.24,51.9,18.49,19.71,0,36.51-24.23,22.38-40.85h0Z"/>
          <path class="cls-10" d="M880.81,2943.66c-34.52,5.43-49.38-26.28-77.58-35.62-12.08-4.28-13.93,10.4-13.39,19.19.25,21.76,13.19,40.53,26.45,56.77,8.33,11.15,8.43,27.42,19.92,36.63,14.96,13.02,32.67-2.4,33.31-19.23,1.09-6.32.67-13.9,5.64-18.66,4.83-4.61,12.05-4.79,18.18-6.46,27.69-10.08,13.27-39.34-12.54-32.62h.01Z"/>
          <path class="cls-1" d="M1914.32,3364.87c-17.9-13.21-38.07-1.9-49.89,15.8-11.19,16.73-15.74,42.53-2.2,52.01,13.55,9.48,35.62-16.77,48.05-30.48,12.71-9.01,14.09-25.7,4.04-37.32h0Z"/>
          <path class="cls-10" d="M618.18,2493.78c-24.7-47.4-88.84,13.18-61.19,48.77,15.19,17.78,41.35,0,55.67-10.96,13.29-8.55,13.03-25.39,5.52-37.81Z"/>
          <path class="cls-12" d="M460.96,3168.5c-5.14-1.66-10.12-1.61-15.12-6.82-4.99-5.21-4.04-14.89-9.7-18.68-5.45-3.65-12.59-4.44-19.83-.61-7.67.67-12.34-13.92-22.93,2.26-10.6,16.17,16.58,32.47,27.95,45.11,5.36,7.31,8.03,17.53,17.3,21.04,10.4,4.2,22.36-.48,30.43-8.11,12.03-11.38,15.37-29.33-8.11-34.18h0Z"/>
          <path class="cls-12" d="M1196.67,3186.32c-18.19,57.72,43.65,18.4,61.53-1.27,23.38-20.73-19.53-55.49-31.37-73.5-8.91-7.46-20.96,3.13-17.35,13.22,5.29,21.48-5.73,41.89-12.8,61.55h-.01Z"/>
          <path class="cls-8" d="M622.36,2978.85c-9.82-7.87-24.2-15.18-20.37-30.14,2.01-12.94-14.6-29.96-26.47-19.3-9.93,13.2-17.32,31-11.66,47.46,11.77,38.63,86.7,40.26,58.5,1.98h0Z"/>
          <path class="cls-6" d="M118.34,2941.98c-34.52,5.43-49.38-26.28-77.58-35.62-12.08-4.28-13.93,10.4-13.39,19.19.25,21.76,13.19,40.53,26.45,56.77,8.33,11.15,8.43,27.42,19.92,36.63,14.96,13.02,32.67-2.4,33.31-19.23,1.09-6.32.67-13.9,5.64-18.66,4.83-4.61,12.05-4.79,18.18-6.46,27.69-10.08,13.27-39.34-12.54-32.62h.01Z"/>
          <path class="cls-12" d="M1768.86,2723.63c-17.9-13.21-38.07-1.9-49.89,15.8-11.19,16.73-15.74,42.53-2.2,52.01,13.55,9.48,35.62-16.77,48.05-30.48,12.71-9.01,14.09-25.7,4.04-37.32h0Z"/>
          <path class="cls-8" d="M1252.8,2726.12c-36.85-36.54-72.92,25.58-37.35,51.56,18.97,12.75,35.94-6.66,44.82-18.34,8.77-9.45,3.09-23.81-7.47-33.21h0Z"/>
          <path class="cls-6" d="M1896.8,2303.12c-39.87,50.85,58.83,91.25,84.23,43.05,12-25.6-20.62-45.54-39.84-55.84-16.04-10.37-34.46-1.68-44.39,12.78h0Z"/>
          <path class="cls-6" d="M1616.91,2565.01c67.81,37.18,33.94-50.12,13.75-77.43-20.15-34.47-74.42,10.64-99.94,20.99-11.57,9.31-1.3,27.04,12.24,25.05,28.24-1.27,51.07,17.62,73.95,31.39h0Z"/>
          <path class="cls-6" d="M236.9,3623.89c-12.72-5.75-31.31-9.32-26.58-27.86,2.41-15.6-19.15-29.61-34.27-13.3-12.6,18.58-21.86,41.6-14.38,58.67,15.63,40.56,111.98,17.1,75.23-17.51Z"/>
          <path class="cls-8" d="M1622.98,3382.94c-11.53-5.93-24.68-4.14-36.85-7.7-5.27-1.93-10.52-5.85-16.4-3.73-26,18.24,12.52,40.95,22.89,56.55,9.26,16.75,17.85,37.76,39.95,22.1,21.9-16.85,13.94-55.54-9.58-67.22h-.01Z"/>
          <path class="cls-1" d="M1148.98,2924.19c-6.46-8.58-15.27-7.82-24.99-11.05-14.55-4.83-28.31-4.81-38.11,3.36-21.64,18.04-54.64,15.86-41.11,46.36,4.56,10.28,21.65,13.39,27.72,25.79s10.88,20.39,18.59,21c10.17.8,9.91-16.63,22.78-28.81s25.81-12.07,33.04-22.82c6.55-9.74,8.53-25.25,2.07-33.83h.01Z"/>
          <path class="cls-1" d="M230.13,2713.22c-34.75-26.96-79.41,45.04-52.09,67.8,13.55,9.47,35.62-16.77,48.05-30.48,12.71-9.01,14.09-25.7,4.04-37.32Z"/>
          <path class="cls-8" d="M373.21,3418.68c1.31-43.97-83.17-37.63-85.48-2.15.33,16.53,34.53,18.91,52.94,20.87,14.77,4.97,29.07-3.76,32.54-18.72Z"/>
          <path class="cls-1" d="M752.03,3210.51c-18.92-19.49-4.69-24.47-5.87-43.88-2.74-7.69-9.29-13.78-19.35-15.31-8.16-5.02-2-23.05-24.58-14.75s-7.52,44.73-5.53,65.79c-20.64,71.56,95.47,55.86,55.34,8.16h-.01Z"/>
          <path class="cls-10" d="M339.15,2982.63c50.19-20.51-12.32-40.62-36.1-41.68-27.67-4.25-27.06,45.23-32.69,63.7-.04,10.41,14.16,12.65,19.05,4.39,11.78-15.94,32.15-20.04,49.75-26.42h0Z"/>
          <path class="cls-8" d="M873.37,3845.62c-11.82-22.8-41.29-37-65.26-24.53-3.59,2.56-8.53,4.04-11.54,1.13-5.24-13.62-25.94-6.57-28.94,5.22-4.38,16.34,1.58,38.45,16.71,47.24,23.86,9.47,34.59-.34,54.82,22.36,33.98,22.63,52.16-25.17,34.21-51.42h0Z"/>
          <path class="cls-1" d="M756.78,2299.85c-8.93-5.09-18.99-7.14-28.54-10.69-11.53-21.48-29.65-17.2-39.26,3.11-15.51,16.4-17.53,40.45,5.34,51.07,14.84,8.2,29.27-7.53,43.35-10.74,9.04-2.5,18.48,4.78,27.47.48,17.07-8.38,3.64-27.22-8.36-33.23Z"/>
          <path class="cls-10" d="M1932.09,2974.88c-10.27-7.44-22.64.71-29.24-9.38-5.2-7.94-4.7-27.11-17.71-33.1-17.81-8.2-32.84,8.73-39.14,9.4-9.32.99-45.13-10.6-45.1,18.98.01,13.92,12.19,30.35,25.48,36.48,20.75,9.58,17.22,19.55,28.69,25.4,19.05,5.55,35.46-12,55.71-6.36s22.64-1.69,27.89-9.56c6.14-9.2,3.68-24.42-6.58-31.86ZM1902.67,2965.39c-.32-.22-.3-.26,0,0h0Z"/>
          <path class="cls-8" d="M1149.47,2510.96c-7.23-3.12-12.01-8.37-15.96-15.05-5.93-9.4-12.36-12.55-18.83-12.03-10.46.84-17.44,16.52-21.19,19.17-3.75,2.65-17,6.63-18.91,10.63-4.47,9.36-2.15,22.61-3.39,32.82-.86,12.69-11.91,18.37-5.83,31.34,9.46,12.45,44.3-13.24,54.15-20.41,9.44-6.76,22.71-6.01,32.21-13.03,13.14-8.05,11.46-26.99-2.26-33.44h0Z"/>
          <path class="cls-12" d="M1408.59,2087.69c7.12-14.37,4.65-30.59,8.81-45.7,2.29-6.55,7.03-13.12,4.29-20.35-23.04-31.79-50.38,16.25-69.46,29.37-20.53,11.76-46.33,22.78-26.55,49.8,21.24,26.74,68.92,16.17,82.91-13.12h0Z"/>
          <path class="cls-12" d="M1926.17,3825.39c-6.46-8.58-15.27-7.82-24.99-11.05-14.55-4.83-28.31-4.81-38.11,3.36-21.64,18.04-54.64,15.86-41.11,46.36,4.56,10.28,21.65,13.39,27.72,25.79s10.88,20.39,18.59,21c10.17.8,9.91-16.63,22.78-28.81s25.81-12.07,33.04-22.82c6.55-9.74,8.53-25.25,2.07-33.83h.01Z"/>
          <path class="cls-10" d="M1691.9,2087.09c-.55-1.04-1.1-2.07-1.63-3.13-.23-.45-.44-.91-.66-1.37-.09-.23-.17-.47-.25-.7-5.57-16.02-21.73-23.17-36.71-28.11-4.21-1.39-8.46-2.63-12.71-3.86-3.54-1.02-6.74-1.85-9.77-4-4.83-3.43-8.71-9.46-13.34-13.66-5.43-4.93-13.2-9.98-20.88-9.28-6.24.57-11.02,4.76-13.75,10.23-2.41,4.83-3.59,10.05-4.18,15.38-.81,7.34,1.87,14,4.92,20.53,2.48,5.29,7.4,13.53,4.27,19.4-1.28,2.4-3.63,4.64-5.47,6.95-2.1,2.64-4.26,5.31-5.9,8.27-3.38,6.07-3.83,12.91,1.08,18.31,2.62,2.88,7.69,6.42,11.66,6.65,2.37.14,4.88-.16,7.23-.44,7.85-.95,14.82-3.58,21.64-7.52,2.84-1.64,5.65-3.33,8.59-4.79.79-.39,1.58-.75,2.38-1.12.12-.05.24-.11.36-.16t.03-.01c.5-.2,1-.4,1.5-.59,2.03-.76,4.1-1.4,6.19-1.94,12.98-3.35,27.44-2.93,41.45-1.87,6.67.5,15.64-.04,17.89-7.76,1.54-5.27-1.6-10.91-3.96-15.42h.02Z"/>
          <path class="cls-10" d="M479.77,3606.64c-30.53-36.91-74.15,15.47-62.83,49.86,8.32,16.54,26.4,25.93,42.98,32.39,15.3,9.89,33.03,1.99,38.89-14.59,10.27-23.57-1.8-50.78-19.04-67.66Z"/>
          <path class="cls-10" d="M1387.76,2542.72c-8.12-21.7-26.61-25.71-34.74-51.5-5.05-9.18-14.97-18.79-26.28-15.1-12.73,5.71-11.06,24.26-11.93,36.06.7,11.17,12.66,13.68,20.06,19.36,10.67,7.41,14.53,21.64,25.55,28.66,12.05,6.6,30.42-2.6,27.34-17.49h0Z"/>
          <path class="cls-1" d="M1117.14,3892.03c15.72-3.15,27.05-15.01,41.55-20.96,6.59-2.2,14.68-2.46,18.73-9.04,11.08-37.67-43.65-29.94-65.7-37.03-21.86-9.06-46.35-22.75-55.64,9.42-8.18,33.16,29.32,64.43,61.06,57.6h0Z"/>
          <path class="cls-10" d="M1119.86,2383.4c-3.53-4.68-8.34-4.27-13.64-6.03-7.94-2.64-15.45-2.63-20.8,1.84-11.81,9.85-29.82,8.65-22.44,25.31,2.49,5.61,11.82,7.31,15.13,14.08,3.32,6.77,5.94,11.13,10.15,11.46,5.55.44,5.41-9.08,12.44-15.72,7.03-6.65,14.09-6.59,18.04-12.46,3.58-5.31,4.66-13.78,1.13-18.47h-.01Z"/>
          <path class="cls-8" d="M373.25,2497.65c-12.67-1.36-19.68,11.79-30.39,6.34-8.44-4.3-17.25-21.12-31.65-19.87-19.71,1.71-24.83,23.77-30.08,27.46-7.77,5.46-45.04,13.13-30.73,38.69,6.73,12.02,25.43,20.22,40.15,18.96,22.98-1.97,24.68,8.4,37.64,7.79,19.53-4.61,25.57-27.9,46.2-33.03,20.63-5.13,19.21-12.65,20.05-22.04.99-10.99-8.54-22.94-21.21-24.29h.02ZM342.65,2503.97c-.39-.03-.39-.08,0,0h0Z"/>
        </g>
        <g>
          <path class="cls-5" d="M56.37,2067.16c5.05-4.78,13.23-4.78,18.27,0,5.05,4.78,5.05,12.54,0,17.32s-13.23,4.78-18.27,0-5.05-12.54,0-17.32Z"/>
          <path class="cls-5" d="M314.8,2067.16c5.05-4.78,13.23-4.78,18.27,0,5.05,4.78,5.05,12.54,0,17.32s-13.23,4.78-18.27,0-5.05-12.54,0-17.32Z"/>
          <path class="cls-5" d="M573.22,2067.16c5.05-4.78,13.23-4.78,18.27,0,5.05,4.78,5.05,12.54,0,17.32s-13.23,4.78-18.27,0-5.05-12.54,0-17.32Z"/>
          <path class="cls-5" d="M831.65,2067.16c5.05-4.78,13.23-4.78,18.27,0,5.05,4.78,5.05,12.54,0,17.32s-13.23,4.78-18.27,0c-5.05-4.78-5.05-12.54,0-17.32Z"/>
          <path class="cls-5" d="M1090.08,2067.16c5.05-4.78,13.23-4.78,18.27,0,5.05,4.78,5.05,12.54,0,17.32s-13.23,4.78-18.27,0-5.05-12.54,0-17.32Z"/>
          <path class="cls-5" d="M1348.5,2067.16c5.05-4.78,13.23-4.78,18.27,0,5.05,4.78,5.05,12.54,0,17.32s-13.23,4.78-18.27,0c-5.05-4.78-5.05-12.54,0-17.32Z"/>
          <path class="cls-5" d="M1606.93,2067.16c5.05-4.78,13.23-4.78,18.27,0,5.05,4.78,5.05,12.54,0,17.32s-13.23,4.78-18.27,0c-5.05-4.78-5.05-12.54,0-17.32Z"/>
          <path class="cls-5" d="M1865.36,2067.16c5.05-4.78,13.23-4.78,18.27,0,5.05,4.78,5.05,12.54,0,17.32s-13.23,4.78-18.27,0c-5.05-4.78-5.05-12.54,0-17.32Z"/>
          <path class="cls-5" d="M186.37,2289.38c5.05-4.78,13.23-4.78,18.27,0s5.05,12.54,0,17.32-13.23,4.78-18.27,0c-5.05-4.78-5.05-12.54,0-17.32Z"/>
          <path class="cls-5" d="M444.8,2289.38c5.05-4.78,13.23-4.78,18.27,0s5.05,12.54,0,17.32-13.23,4.78-18.27,0-5.05-12.54,0-17.32Z"/>
          <path class="cls-5" d="M703.22,2289.38c5.05-4.78,13.23-4.78,18.27,0s5.05,12.54,0,17.32-13.23,4.78-18.27,0-5.05-12.54,0-17.32Z"/>
          <path class="cls-5" d="M961.65,2289.38c5.05-4.78,13.23-4.78,18.27,0s5.05,12.54,0,17.32-13.23,4.78-18.27,0c-5.05-4.78-5.05-12.54,0-17.32Z"/>
          <path class="cls-5" d="M1220.08,2289.38c5.05-4.78,13.23-4.78,18.27,0,5.05,4.78,5.05,12.54,0,17.32s-13.23,4.78-18.27,0-5.05-12.54,0-17.32Z"/>
          <path class="cls-5" d="M1478.5,2289.38c5.05-4.78,13.23-4.78,18.27,0,5.05,4.78,5.05,12.54,0,17.32s-13.23,4.78-18.27,0c-5.05-4.78-5.05-12.54,0-17.32Z"/>
          <path class="cls-5" d="M1736.93,2289.38c5.05-4.78,13.23-4.78,18.27,0s5.05,12.54,0,17.32-13.23,4.78-18.27,0c-5.05-4.78-5.05-12.54,0-17.32Z"/>
          <path class="cls-5" d="M186.37,2733.83c5.05-4.78,13.23-4.78,18.27,0,5.05,4.78,5.05,12.54,0,17.32s-13.23,4.78-18.27,0c-5.05-4.78-5.05-12.54,0-17.32Z"/>
          <path class="cls-5" d="M703.22,2733.83c5.05-4.78,13.23-4.78,18.27,0,5.05,4.78,5.05,12.54,0,17.32s-13.23,4.78-18.27,0c-5.05-4.78-5.05-12.54,0-17.32Z"/>
          <path class="cls-5" d="M961.65,2733.83c5.05-4.78,13.23-4.78,18.27,0,5.05,4.78,5.05,12.54,0,17.32s-13.23,4.78-18.27,0c-5.05-4.78-5.05-12.54,0-17.32Z"/>
          <path class="cls-5" d="M1220.08,2733.83c5.05-4.78,13.23-4.78,18.27,0,5.05,4.78,5.05,12.54,0,17.32s-13.23,4.78-18.27,0c-5.05-4.78-5.05-12.54,0-17.32Z"/>
          <path class="cls-5" d="M1478.5,2733.83c5.05-4.78,13.23-4.78,18.27,0,5.05,4.78,5.05,12.54,0,17.32s-13.23,4.78-18.27,0c-5.05-4.78-5.05-12.54,0-17.32Z"/>
          <path class="cls-5" d="M1736.93,2733.83c5.05-4.78,13.23-4.78,18.27,0,5.05,4.78,5.05,12.54,0,17.32s-13.23,4.78-18.27,0c-5.05-4.78-5.05-12.54,0-17.32Z"/>
          <path class="cls-5" d="M56.37,2511.6c5.05-4.78,13.23-4.78,18.27,0s5.05,12.54,0,17.32-13.23,4.78-18.27,0-5.05-12.54,0-17.32Z"/>
          <path class="cls-5" d="M314.8,2511.6c5.05-4.78,13.23-4.78,18.27,0s5.05,12.54,0,17.32-13.23,4.78-18.27,0-5.05-12.54,0-17.32Z"/>
          <path class="cls-5" d="M573.22,2511.6c5.05-4.78,13.23-4.78,18.27,0s5.05,12.54,0,17.32-13.23,4.78-18.27,0-5.05-12.54,0-17.32Z"/>
          <path class="cls-5" d="M831.65,2511.6c5.05-4.78,13.23-4.78,18.27,0s5.05,12.54,0,17.32-13.23,4.78-18.27,0c-5.05-4.78-5.05-12.54,0-17.32Z"/>
          <path class="cls-5" d="M1090.08,2511.6c5.05-4.78,13.23-4.78,18.27,0,5.05,4.78,5.05,12.54,0,17.32s-13.23,4.78-18.27,0-5.05-12.54,0-17.32Z"/>
          <path class="cls-5" d="M1348.5,2511.6c5.05-4.78,13.23-4.78,18.27,0,5.05,4.78,5.05,12.54,0,17.32s-13.23,4.78-18.27,0c-5.05-4.78-5.05-12.54,0-17.32Z"/>
          <path class="cls-5" d="M1606.93,2511.6c5.05-4.78,13.23-4.78,18.27,0s5.05,12.54,0,17.32-13.23,4.78-18.27,0c-5.05-4.78-5.05-12.54,0-17.32Z"/>
          <path class="cls-5" d="M1865.36,2511.6c5.05-4.78,13.23-4.78,18.27,0,5.05,4.78,5.05,12.54,0,17.32s-13.23,4.78-18.27,0c-5.05-4.78-5.05-12.54,0-17.32Z"/>
          <path class="cls-5" d="M186.37,3178.27c5.05-4.78,13.23-4.78,18.27,0,5.05,4.78,5.05,12.54,0,17.32-5.05,4.78-13.23,4.78-18.27,0-5.05-4.78-5.05-12.54,0-17.32Z"/>
          <path class="cls-5" d="M444.8,3178.27c5.05-4.78,13.23-4.78,18.27,0,5.05,4.78,5.05,12.54,0,17.32-5.05,4.78-13.23,4.78-18.27,0-5.05-4.78-5.05-12.54,0-17.32Z"/>
          <path class="cls-5" d="M703.22,3178.27c5.05-4.78,13.23-4.78,18.27,0,5.05,4.78,5.05,12.54,0,17.32-5.05,4.78-13.23,4.78-18.27,0-5.05-4.78-5.05-12.54,0-17.32Z"/>
          <path class="cls-5" d="M961.65,3178.27c5.05-4.78,13.23-4.78,18.27,0,5.05,4.78,5.05,12.54,0,17.32-5.05,4.78-13.23,4.78-18.27,0-5.05-4.78-5.05-12.54,0-17.32Z"/>
          <path class="cls-5" d="M1220.08,3178.27c5.05-4.78,13.23-4.78,18.27,0,5.05,4.78,5.05,12.54,0,17.32-5.05,4.78-13.23,4.78-18.27,0-5.05-4.78-5.05-12.54,0-17.32Z"/>
          <path class="cls-5" d="M1478.5,3178.27c5.05-4.78,13.23-4.78,18.27,0,5.05,4.78,5.05,12.54,0,17.32-5.05,4.78-13.23,4.78-18.27,0-5.05-4.78-5.05-12.54,0-17.32Z"/>
          <path class="cls-5" d="M1736.93,3178.27c5.05-4.78,13.23-4.78,18.27,0,5.05,4.78,5.05,12.54,0,17.32-5.05,4.78-13.23,4.78-18.27,0-5.05-4.78-5.05-12.54,0-17.32Z"/>
          <path class="cls-5" d="M56.37,2956.05c5.05-4.78,13.23-4.78,18.27,0,5.05,4.78,5.05,12.54,0,17.32s-13.23,4.78-18.27,0c-5.05-4.78-5.05-12.54,0-17.32Z"/>
          <path class="cls-5" d="M314.8,2956.05c5.05-4.78,13.23-4.78,18.27,0,5.05,4.78,5.05,12.54,0,17.32s-13.23,4.78-18.27,0c-5.05-4.78-5.05-12.54,0-17.32Z"/>
          <path class="cls-5" d="M573.22,2956.05c5.05-4.78,13.23-4.78,18.27,0,5.05,4.78,5.05,12.54,0,17.32s-13.23,4.78-18.27,0c-5.05-4.78-5.05-12.54,0-17.32Z"/>
          <path class="cls-5" d="M831.65,2956.05c5.05-4.78,13.23-4.78,18.27,0,5.05,4.78,5.05,12.54,0,17.32s-13.23,4.78-18.27,0c-5.05-4.78-5.05-12.54,0-17.32Z"/>
          <path class="cls-5" d="M1090.08,2956.05c5.05-4.78,13.23-4.78,18.27,0,5.05,4.78,5.05,12.54,0,17.32s-13.23,4.78-18.27,0c-5.05-4.78-5.05-12.54,0-17.32Z"/>
          <path class="cls-5" d="M1348.5,2956.05c5.05-4.78,13.23-4.78,18.27,0,5.05,4.78,5.05,12.54,0,17.32s-13.23,4.78-18.27,0c-5.05-4.78-5.05-12.54,0-17.32Z"/>
          <path class="cls-5" d="M1606.93,2956.05c5.05-4.78,13.23-4.78,18.27,0,5.05,4.78,5.05,12.54,0,17.32s-13.23,4.78-18.27,0c-5.05-4.78-5.05-12.54,0-17.32Z"/>
          <path class="cls-5" d="M1865.36,2956.05c5.05-4.78,13.23-4.78,18.27,0,5.05,4.78,5.05,12.54,0,17.32s-13.23,4.78-18.27,0c-5.05-4.78-5.05-12.54,0-17.32Z"/>
          <path class="cls-5" d="M56.37,3400.49c5.05-4.78,13.23-4.78,18.27,0,5.05,4.78,5.05,12.54,0,17.32-5.05,4.78-13.23,4.78-18.27,0-5.05-4.78-5.05-12.54,0-17.32Z"/>
          <path class="cls-5" d="M314.8,3400.49c5.05-4.78,13.23-4.78,18.27,0,5.05,4.78,5.05,12.54,0,17.32-5.05,4.78-13.23,4.78-18.27,0-5.05-4.78-5.05-12.54,0-17.32Z"/>
          <path class="cls-5" d="M573.22,3400.49c5.05-4.78,13.23-4.78,18.27,0,5.05,4.78,5.05,12.54,0,17.32-5.05,4.78-13.23,4.78-18.27,0-5.05-4.78-5.05-12.54,0-17.32Z"/>
          <path class="cls-5" d="M831.65,3400.49c5.05-4.78,13.23-4.78,18.27,0,5.05,4.78,5.05,12.54,0,17.32-5.05,4.78-13.23,4.78-18.27,0-5.05-4.78-5.05-12.54,0-17.32Z"/>
          <path class="cls-5" d="M1090.08,3400.49c5.05-4.78,13.23-4.78,18.27,0,5.05,4.78,5.05,12.54,0,17.32-5.05,4.78-13.23,4.78-18.27,0-5.05-4.78-5.05-12.54,0-17.32Z"/>
          <path class="cls-5" d="M1348.5,3400.49c5.05-4.78,13.23-4.78,18.27,0,5.05,4.78,5.05,12.54,0,17.32-5.05,4.78-13.23,4.78-18.27,0-5.05-4.78-5.05-12.54,0-17.32Z"/>
          <path class="cls-5" d="M1606.93,3400.49c5.05-4.78,13.23-4.78,18.27,0,5.05,4.78,5.05,12.54,0,17.32-5.05,4.78-13.23,4.78-18.27,0-5.05-4.78-5.05-12.54,0-17.32Z"/>
          <path class="cls-5" d="M1865.36,3400.49c5.05-4.78,13.23-4.78,18.27,0,5.05,4.78,5.05,12.54,0,17.32-5.05,4.78-13.23,4.78-18.27,0-5.05-4.78-5.05-12.54,0-17.32Z"/>
          <path class="cls-5" d="M186.37,3622.71c5.05-4.78,13.23-4.78,18.27,0,5.05,4.78,5.05,12.54,0,17.32-5.05,4.78-13.23,4.78-18.27,0-5.05-4.78-5.05-12.54,0-17.32Z"/>
          <path class="cls-5" d="M444.8,3622.71c5.05-4.78,13.23-4.78,18.27,0,5.05,4.78,5.05,12.54,0,17.32-5.05,4.78-13.23,4.78-18.27,0-5.05-4.78-5.05-12.54,0-17.32Z"/>
          <path class="cls-5" d="M961.65,3622.71c5.05-4.78,13.23-4.78,18.27,0,5.05,4.78,5.05,12.54,0,17.32-5.05,4.78-13.23,4.78-18.27,0-5.05-4.78-5.05-12.54,0-17.32Z"/>
          <path class="cls-5" d="M1220.08,3622.71c5.05-4.78,13.23-4.78,18.27,0,5.05,4.78,5.05,12.54,0,17.32-5.05,4.78-13.23,4.78-18.27,0-5.05-4.78-5.05-12.54,0-17.32Z"/>
          <path class="cls-5" d="M1478.5,3622.71c5.05-4.78,13.23-4.78,18.27,0,5.05,4.78,5.05,12.54,0,17.32-5.05,4.78-13.23,4.78-18.27,0-5.05-4.78-5.05-12.54,0-17.32Z"/>
          <path class="cls-5" d="M1736.93,3622.71c5.05-4.78,13.23-4.78,18.27,0,5.05,4.78,5.05,12.54,0,17.32-5.05,4.78-13.23,4.78-18.27,0-5.05-4.78-5.05-12.54,0-17.32Z"/>
          <path class="cls-5" d="M56.37,3844.94c5.05-4.78,13.23-4.78,18.27,0s5.05,12.54,0,17.32c-5.05,4.78-13.23,4.78-18.27,0-5.05-4.78-5.05-12.54,0-17.32Z"/>
          <path class="cls-5" d="M314.8,3844.94c5.05-4.78,13.23-4.78,18.27,0s5.05,12.54,0,17.32c-5.05,4.78-13.23,4.78-18.27,0-5.05-4.78-5.05-12.54,0-17.32Z"/>
          <path class="cls-5" d="M573.22,3844.94c5.05-4.78,13.23-4.78,18.27,0s5.05,12.54,0,17.32c-5.05,4.78-13.23,4.78-18.27,0-5.05-4.78-5.05-12.54,0-17.32Z"/>
          <path class="cls-5" d="M831.65,3844.94c5.05-4.78,13.23-4.78,18.27,0s5.05,12.54,0,17.32c-5.05,4.78-13.23,4.78-18.27,0-5.05-4.78-5.05-12.54,0-17.32Z"/>
          <path class="cls-5" d="M1090.08,3844.94c5.05-4.78,13.23-4.78,18.27,0,5.05,4.78,5.05,12.54,0,17.32-5.05,4.78-13.23,4.78-18.27,0-5.05-4.78-5.05-12.54,0-17.32Z"/>
          <path class="cls-5" d="M1348.5,3844.94c5.05-4.78,13.23-4.78,18.27,0,5.05,4.78,5.05,12.54,0,17.32-5.05,4.78-13.23,4.78-18.27,0-5.05-4.78-5.05-12.54,0-17.32Z"/>
          <path class="cls-5" d="M1606.93,3844.94c5.05-4.78,13.23-4.78,18.27,0s5.05,12.54,0,17.32c-5.05,4.78-13.23,4.78-18.27,0-5.05-4.78-5.05-12.54,0-17.32Z"/>
          <path class="cls-5" d="M1865.36,3844.94c5.05-4.78,13.23-4.78,18.27,0,5.05,4.78,5.05,12.54,0,17.32-5.05,4.78-13.23,4.78-18.27,0-5.05-4.78-5.05-12.54,0-17.32Z"/>
        </g>
      </g>
    </g>
  </g>
  <path class="cls-7" d="M658.78.84h651.71l170.48,290.76-145.7,92.86,154.34,96.06-114.37,111.45,125.4,410.13-226.45,363.15,321.78,253.61-382.57,328.05,144.99,138.9-84.55,72.47,118.67,339.13-77.69,228.33,250.32,240.56-244.3,381.09,198.98,167.22-172.64,174.73,86.32,53s-187.08,58.7-185.59,63.5,278.38,80.56,278.38,80.56l-88.48,108.31h-902.03l248.17-218.39-211.48-100.57,88.48-187.55-205.01-125.04v-343.85l187.74-159.01,146.74-214.74-207.17-169.89,224.43-226.97-248.17-122.32,213.64-152.22-235.22-63.88-220.11-231.05,271.9-144.06,73.37-198.43-315.06-247.35,214.83-234.91,69.4-204.21-55.48-89.39-91.2-181.48,177.52-108.18-38.84-115.52L658.78.84Z"/>
</svg>